<?xml version="1.0" encoding="utf-8"?>
<!-- Generator: Adobe Illustrator 17.0.0, SVG Export Plug-In . SVG Version: 6.00 Build 0)  -->
<!DOCTYPE svg PUBLIC "-//W3C//DTD SVG 1.1//EN" "http://www.w3.org/Graphics/SVG/1.1/DTD/svg11.dtd">
<svg version="1.1" xmlns="http://www.w3.org/2000/svg" xmlns:xlink="http://www.w3.org/1999/xlink" x="0px" y="0px" width="200px"
	 height="200px" viewBox="0 0 200 200" enable-background="new 0 0 200 200" xml:space="preserve">
<g id="Layer_1" display="none">
</g>
<g id="Layer_2">
	<g>
		<path fill="#0054A6" d="M199.996,100.001C199.996,155.228,155.221,200,100,200c-55.227,0-99.996-44.772-99.996-99.999
			C0.004,44.777,44.773,0,100,0C155.221,0,199.996,44.777,199.996,100.001z"/>
		<circle fill="#FFFFFF" cx="99.997" cy="100.001" r="86.84"/>
		<g>
			<g>
				<g>
					<g>
						<path fill="#6D6E71" d="M119.934,132.133c0.888,0,1.604-0.725,1.604-1.618c0-0.896-0.717-1.613-1.604-1.613
							c-0.898,0-1.621,0.717-1.621,1.613C118.313,131.408,119.036,132.133,119.934,132.133z"/>
						<path fill="#6D6E71" d="M107.145,133.208c0.121-0.11,0.32-0.325,0.557-0.56c0.248,0.234,0.447,0.449,0.568,0.56
							c0.629,0.623,1.648,0.623,2.282,0c0.634-0.629,0.634-1.651,0-2.282c-0.325-0.328-1.378-1.386-1.698-1.709
							c-0.314-0.317-0.728-0.474-1.152-0.474c-0.408,0-0.827,0.157-1.141,0.474c-0.32,0.323-1.378,1.381-1.709,1.709
							c-0.623,0.631-0.623,1.654,0,2.282C105.491,133.831,106.511,133.831,107.145,133.208z"/>
						<path fill="#6D6E71" d="M80.358,133.208c0.116-0.11,0.325-0.325,0.557-0.56c0.242,0.234,0.452,0.449,0.562,0.56
							c0.634,0.623,1.659,0.623,2.288,0c0.639-0.629,0.639-1.651,0-2.282c-0.32-0.328-1.384-1.386-1.698-1.709
							c-0.32-0.317-0.733-0.474-1.152-0.474c-0.414,0-0.827,0.157-1.136,0.474c-0.331,0.323-1.384,1.381-1.704,1.709
							c-0.639,0.631-0.639,1.654,0,2.282C78.699,133.831,79.724,133.831,80.358,133.208z"/>
						<path fill="#6D6E71" d="M58.13,143.646c-0.458,0-2.211,0-2.668,0c-0.887,0-1.615,0.725-1.615,1.615
							c0,0.901,0.728,1.624,1.615,1.624c0.458,0,2.211,0,2.668,0c0.882,0,1.61-0.722,1.61-1.624
							C59.74,144.371,59.012,143.646,58.13,143.646z"/>
						<path fill="#6D6E71" d="M56.488,134.409c-0.629,0.623-0.629,1.654,0,2.285c0.502,0.502,0.502,1.315,0,1.822
							c-0.242,0.248-0.568,0.38-0.921,0.38h-1.213h-0.601h-6.775c-0.888,0-1.61,0.719-1.61,1.613c0,0.896,0.722,1.621,1.61,1.621
							h2.613c-0.121,0.595-0.595,1.196-1.053,1.607c-1.488,1.298-3.589,1.216-5.005-0.22c-0.667-0.659-1.02-1.544-1.003-2.492
							c0.017-0.995,0.419-1.916,1.13-2.602c0.645-0.612,0.673-1.648,0.044-2.279c-0.617-0.648-1.637-0.664-2.277-0.05
							c-1.334,1.265-2.106,3.054-2.134,4.89c-0.017,1.822,0.673,3.537,1.951,4.816c1.373,1.386,3.148,2.084,4.912,2.084
							c1.604,0,3.203-0.568,4.51-1.717c1.329-1.163,2.089-2.596,2.183-4.035h0.904h0.601h1.213c1.213,0,2.349-0.463,3.203-1.331
							c1.764-1.758,1.764-4.628,0-6.389C58.136,133.767,57.116,133.767,56.488,134.409z"/>
						<path fill="#6D6E71" d="M128.495,139.04l-3.44-3.44c-1.681-1.681-4.063-2.362-6.367-1.839
							c-0.882,0.196-1.417,1.058-1.224,1.935c0.198,0.871,1.069,1.419,1.94,1.213c1.218-0.281,2.475,0.086,3.357,0.965l0.452,0.455
							c-0.573,0.361-1.246,0.557-1.935,0.557h-4.73c-0.017,0-0.028-0.003-0.055-0.003c-0.706,0-1.285-0.582-1.285-1.29
							c0-0.885-0.722-1.613-1.621-1.613c-0.888,0-1.615,0.728-1.615,1.613c0,0.708-0.568,1.29-1.29,1.29
							c-0.711,0-1.29-0.582-1.29-1.29c0-0.885-0.722-1.613-1.615-1.613c-0.904,0-1.615,0.728-1.615,1.613
							c0,0.708-0.584,1.29-1.296,1.29c-0.711,0-1.29-0.582-1.29-1.29c0-0.885-0.728-1.613-1.621-1.613
							c-0.888,0-1.615,0.728-1.615,1.613c0,0.697-0.562,1.265-1.257,1.29h-0.568c-0.689-0.025-1.246-0.587-1.262-1.285v-0.011
							c0-1.215-0.463-2.354-1.323-3.211l-2.398-2.395l3.368-3.374c0.628-0.623,0.628-1.646,0-2.279c-0.634-0.62-1.665-0.62-2.282,0
							l-4.515,4.506c-0.634,0.634-0.634,1.654,0,2.291l3.545,3.539c0.248,0.245,0.386,0.565,0.386,0.912v0.017
							c-0.011,0.708-0.59,1.282-1.307,1.282h-3.17c-0.645-0.077-1.136-0.62-1.136-1.282c0-0.885-0.728-1.613-1.615-1.613
							c-0.888,0-1.621,0.728-1.621,1.613c0,0.708-0.579,1.29-1.285,1.29c-0.722,0-1.301-0.582-1.301-1.29
							c0-0.885-0.722-1.613-1.615-1.613c-0.882,0-1.61,0.728-1.61,1.613c0,0.708-0.59,1.29-1.296,1.29
							c-0.717,0-1.29-0.582-1.29-1.29c0-0.885-0.722-1.613-1.615-1.613c-0.899,0-1.621,0.728-1.621,1.613
							c0,0.708-0.585,1.29-1.285,1.29h-1.428c-0.083-0.885-0.292-1.778-0.645-2.621c-0.011-0.019-0.022-0.041-0.027-0.061
							c-0.044-0.102-0.474-1.012-1.235-1.775c-0.772-0.766-1.896-1.218-3.021-1.218c-2.497,0-4.531,1.902-4.531,4.385
							c0,2.497,2.034,4.529,4.531,4.529h0.899c-0.832,1.034-2.128,1.632-3.501,1.53c-0.888-0.055-1.659,0.609-1.731,1.497
							c-0.055,0.891,0.612,1.673,1.499,1.731c0.176,0.014,0.353,0.025,0.524,0.025c2.966,0,5.628-1.781,6.77-4.54
							c0.044-0.083,0.066-0.165,0.094-0.242h1.847l0,0c1.086-0.014,2.079-0.408,2.861-1.067c0.783,0.673,1.797,1.067,2.905,1.067
							c1.102,0,2.122-0.394,2.905-1.067c0.788,0.673,1.803,1.067,2.916,1.067c1.102,0,2.111-0.394,2.905-1.067
							c0.783,0.673,1.803,1.067,2.905,1.067c0.088,0,0.165-0.006,0.248-0.019h2.767c1.108,0,2.123-0.394,2.911-1.053
							c0.761,0.645,1.725,1.039,2.801,1.067v0.006h0.055c0.022,0,0.044,0,0.061,0c0,0,0.022,0,0.028,0h0.436c0,0,0.027,0,0.033,0
							c0.022,0,0.033,0,0.061,0h0.016l0,0c1.075-0.019,2.056-0.419,2.828-1.067c0.783,0.673,1.808,1.067,2.911,1.067
							c1.108,0,2.123-0.394,2.911-1.067c0.783,0.673,1.797,1.067,2.905,1.067s2.128-0.394,2.905-1.067
							c0.788,0.673,1.802,1.067,2.905,1.067h0.022h4.763c1.571,0,3.049-0.529,4.245-1.478l0.684,0.686
							c0.32,0.311,0.722,0.469,1.136,0.469c0.425,0,0.832-0.157,1.152-0.469C129.129,140.699,129.129,139.666,128.495,139.04z
							 M65.914,138.883c-0.711,0-1.295-0.582-1.295-1.29c0-0.711,0.584-1.161,1.295-1.161c0.447,0,0.882,0.334,1.147,0.783
							c0.391,0.653,0.54,1.668,0.54,1.668H65.914z"/>
					</g>
					<g>
						<path fill="#0054A6" d="M41.868,77.97c-1.213,0-2.216-0.992-2.216-2.216c0-1.218,1.003-2.216,2.216-2.216
							c1.224,0,2.216,0.998,2.216,2.216C44.084,76.977,43.092,77.97,41.868,77.97z M41.868,73.678c-1.147,0-2.073,0.935-2.073,2.076
							c0,1.144,0.926,2.081,2.073,2.081c1.152,0,2.084-0.937,2.084-2.081C43.952,74.612,43.02,73.678,41.868,73.678z"/>
					</g>
					<g>
						<path fill="#0054A6" d="M42.144,74.43c0.253,0,0.452,0.061,0.595,0.185c0.143,0.121,0.215,0.292,0.215,0.507
							c0,0.16-0.039,0.306-0.11,0.427c-0.066,0.121-0.187,0.198-0.353,0.245V75.8c0.077,0.019,0.143,0.041,0.193,0.075
							c0.044,0.033,0.088,0.08,0.116,0.13c0.028,0.044,0.044,0.102,0.061,0.16c0.005,0.058,0.022,0.119,0.033,0.185
							c0,0.064,0.011,0.132,0.011,0.201c0,0.066,0.006,0.13,0.017,0.193c0.005,0.063,0.022,0.121,0.044,0.185
							c0.016,0.061,0.05,0.113,0.083,0.152h-0.391c-0.028-0.022-0.044-0.063-0.05-0.108c-0.016-0.052-0.022-0.102-0.022-0.163
							c0-0.058,0-0.121-0.005-0.182c0-0.066-0.011-0.135-0.022-0.201c-0.006-0.066-0.022-0.124-0.039-0.182
							c-0.017-0.061-0.039-0.11-0.072-0.152c-0.028-0.044-0.072-0.077-0.121-0.108c-0.055-0.022-0.121-0.036-0.209-0.036h-0.86v1.13
							h-0.358V74.43H42.144z M42.221,75.632c0.077-0.016,0.138-0.033,0.198-0.077c0.055-0.039,0.094-0.077,0.132-0.135
							c0.033-0.069,0.05-0.146,0.05-0.24c0-0.132-0.039-0.248-0.11-0.331c-0.072-0.08-0.193-0.124-0.358-0.124h-0.877v0.924h0.733
							C42.072,75.649,42.144,75.643,42.221,75.632z"/>
					</g>
					<g>
						<path fill-rule="evenodd" clip-rule="evenodd" fill="#F7941E" d="M158.788,136.846c1.213-1.21,1.957-2.878,1.957-4.73
							c0-3.705-2.999-6.704-6.698-6.704c-1.852,0-3.523,0.75-4.741,1.96l0,0l-1.957,1.965l-1.968-1.965l-0.005,0.003
							c-1.213-1.213-2.889-1.963-4.741-1.963c-3.694,0-6.698,2.999-6.698,6.704c0,1.852,0.75,3.526,1.957,4.738l0,0l11.45,11.444
							L158.788,136.846L158.788,136.846z"/>
						<g>
							<path fill="#0054A6" d="M100.028,121.135c-11.874,0-21.527-9.661-21.527-21.53V69.706c0-3.636,2.938-6.579,6.571-6.579
								c3.633,0,6.582,2.944,6.582,6.579v29.898c0,4.62,3.754,8.374,8.374,8.374c4.614,0,8.368-3.754,8.368-8.374
								c0-4.622-3.754-8.38-8.368-8.38c-2.668,0-5.061-1.599-6.081-4.055c-1.02-2.456-0.452-5.287,1.422-7.166l14.956-14.948
								c2.569-2.566,6.731-2.566,9.3,0c2.563,2.569,2.563,6.726,0,9.291l-7.475,7.481c5.673,3.878,9.405,10.397,9.405,17.776
								C121.555,111.474,111.891,121.135,100.028,121.135z"/>
						</g>
						<g>
							<path fill="#0054A6" d="M147.371,121.135c-5.755,0-11.158-2.238-15.226-6.304c-4.068-4.066-6.301-9.479-6.301-15.226V69.706
								c0-3.636,2.944-6.579,6.576-6.579c3.628,0,6.571,2.944,6.571,6.579v29.898c0,2.238,0.876,4.341,2.453,5.921
								c1.582,1.579,3.688,2.453,5.926,2.453c2.233,0,4.339-0.874,5.921-2.453c1.582-1.579,2.448-3.682,2.448-5.921
								s-0.866-4.341-2.448-5.923c-2.574-2.569-2.574-6.734,0-9.306c2.569-2.561,6.731-2.563,9.3,0
								c4.063,4.074,6.301,9.479,6.301,15.229c0,5.747-2.238,11.161-6.301,15.226C158.523,118.896,153.121,121.135,147.371,121.135z
								"/>
						</g>
						<g>
							<path fill="#0054A6" d="M67.855,84.367c-2.569-2.566-6.737-2.572-9.305,0c-2.569,2.566-2.569,6.734,0,9.297
								c1.582,1.582,2.453,3.68,2.453,5.926c0,2.233-0.871,4.336-2.453,5.921c-3.264,3.263-8.578,3.263-11.841,0
								c-1.351-1.351-2.178-3.082-2.393-4.945c0,0-0.055-0.521-0.061-0.984l4.355,4.358v-0.011c2.326,2.153,5.943,2.098,8.197-0.154
								c2.31-2.315,2.31-6.059,0-8.365L45.754,84.351c-2.31-2.312-6.059-2.312-8.363,0c-0.088,0.077-0.154,0.165-0.22,0.245
								c-0.055,0.061-0.11,0.121-0.165,0.179c-3.815,4.019-5.904,9.253-5.904,14.815c0,5.75,2.238,11.155,6.306,15.21
								c4.201,4.206,9.708,6.301,15.221,6.301c5.513-0.003,11.026-2.098,15.226-6.301c4.057-4.055,6.301-9.46,6.301-15.21
								C74.156,93.838,71.912,88.433,67.855,84.367z"/>
						</g>
					</g>
				</g>
			</g>
		</g>
		<g>
			<path fill="#6D6E71" d="M88.566,175.857c0-0.896-0.016-1.648-0.044-2.274c-0.039-0.614-0.072-1.141-0.121-1.554
				c-0.044-0.419-0.094-0.758-0.16-1.009c-0.05-0.27-0.099-0.488-0.143-0.661c-0.038-0.152-0.077-0.328-0.105-0.529
				c-0.022-0.19-0.022-0.375,0.017-0.549c0.033-0.182,0.083-0.309,0.198-0.43c0.121-0.13,0.325-0.22,0.573-0.234
				c0.507-0.05,0.766,0.331,0.932,0.954c0.022,0.105,0.077,0.353,0.154,0.747c0.072,0.391,0.143,0.86,0.209,1.403
				c0.066,0.537,0.11,1.102,0.143,1.706c0.038,0.601,0.033,1.147-0.011,1.648c-0.044,0.51-0.044,0.97-0.193,1.304
				c-0.149,0.325-0.397,0.466-0.689,0.466c-0.232,0-0.43-0.083-0.546-0.24C88.666,176.45,88.566,176.204,88.566,175.857z"/>
			<path fill="#6D6E71" d="M98.07,169.641c0,0.281-0.038,0.565-0.105,0.852c-0.061,0.281-0.16,0.546-0.303,0.777
				c-0.132,0.242-0.32,0.427-0.54,0.576c-0.22,0.146-0.491,0.226-0.821,0.226c-0.182,0-0.364-0.047-0.535-0.143
				c-0.171-0.083-0.314-0.182-0.436-0.292c-0.198,0.248-0.408,0.436-0.645,0.535c-0.231,0.105-0.513,0.072-0.854-0.088
				c0.005,0.135,0.038,0.353,0.083,0.64c0.044,0.292,0.094,0.617,0.132,0.97c0.039,0.353,0.066,0.706,0.077,1.083
				c0.016,0.369,0.066,0.722,0.022,1.023c-0.05,0.303-0.077,0.554-0.204,0.75c-0.132,0.193-0.198,0.336-0.606,0.323
				c-0.231-0.011-0.485-0.124-0.59-0.267c-0.11-0.152-0.165-0.361-0.165-0.637c0-0.507-0.011-0.981-0.033-1.425
				c-0.022-0.447-0.061-0.885-0.127-1.32c-0.061-0.433-0.154-0.857-0.265-1.282c-0.105-0.425-0.248-0.86-0.413-1.304
				c-0.055-0.168-0.116-0.364-0.176-0.579c-0.06-0.229-0.088-0.493-0.077-0.703c0.022-0.201,0.061-0.369,0.182-0.504
				c0.121-0.146,0.309-0.204,0.601-0.209c0.232,0,0.452,0.135,0.585,0.322c0.127,0.185,0.248,0.391,0.353,0.615
				c0.105,0.223,0.215,0.433,0.331,0.623c0.116,0.182,0.275,0.273,0.485,0.273c0.165,0,0.281-0.044,0.347-0.13
				c0.066-0.088,0.11-0.201,0.132-0.334c0.022-0.135,0.033-0.275,0.038-0.438c0-0.157,0.028-0.306,0.066-0.43
				c0.038-0.135,0.11-0.24,0.215-0.339c0.099-0.091,0.27-0.141,0.491-0.141c0.182,0,0.314,0.041,0.402,0.116
				c0.088,0.086,0.154,0.185,0.182,0.309c0.044,0.121,0.055,0.251,0.061,0.386c0.005,0.143,0.016,0.27,0.039,0.391
				c0.016,0.124,0.044,0.223,0.099,0.3c0.055,0.077,0.149,0.119,0.287,0.119c0.099,0,0.16-0.041,0.204-0.119
				c0.039-0.077,0.066-0.176,0.072-0.289c0.011-0.11,0.011-0.234,0.017-0.369c0.005-0.13,0.028-0.259,0.066-0.364
				c0.039-0.119,0.099-0.218,0.187-0.292c0.083-0.083,0.209-0.116,0.38-0.116c0.242,0,0.43,0.094,0.568,0.289
				C98.004,169.208,98.07,169.418,98.07,169.641z"/>
			<path fill="#6D6E71" d="M105.435,171.064c0,0.275-0.132,0.529-0.364,0.763c-0.231,0.226-0.54,0.405-0.91,0.526
				c-0.364,0.121-0.772,0.179-1.213,0.168c-0.441-0.019-0.882-0.132-1.301-0.35c0.061,0.557,0.116,1.108,0.171,1.662
				c0.06,0.551,0.077,1.053,0.066,1.494c-0.011,0.441-0.066,0.86-0.187,1.13c-0.121,0.278-0.358,0.353-0.662,0.353
				c-0.231,0-0.425-0.075-0.546-0.22c-0.127-0.152-0.193-0.416-0.193-0.783c0-0.78-0.017-1.436-0.05-1.965
				c-0.028-0.529-0.083-0.978-0.132-1.345c-0.06-0.361-0.121-0.67-0.198-0.921c-0.077-0.248-0.143-0.471-0.226-0.689
				c-0.055-0.124-0.105-0.295-0.149-0.482c-0.05-0.204-0.072-0.394-0.055-0.576c0.011-0.187,0.077-0.345,0.171-0.471
				c0.099-0.124,0.325-0.279,0.562-0.279c0.138,0,0.314,0.019,0.441,0.121c0.121,0.091,0.248,0.193,0.336,0.342
				c0.116,0.207,0.171,0.383,0.276,0.529c0.11,0.157,0.215,0.278,0.32,0.38c0-1.334,0.524-2.004,1.577-2.004
				c0.231,0,0.452,0.025,0.645,0.086c0.193,0.055,0.369,0.124,0.513,0.226c0.149,0.094,0.265,0.212,0.353,0.336
				c0.072,0.138,0.116,0.267,0.116,0.416c0,0.163-0.044,0.262-0.116,0.317c-0.088,0.047-0.193,0.077-0.325,0.074
				c-0.132-0.008-0.276-0.027-0.441-0.049c-0.171-0.025-0.331-0.047-0.491-0.047c-0.176,0-0.298,0.063-0.386,0.182
				c-0.099,0.119-0.143,0.248-0.143,0.389c0,0.157,0.061,0.289,0.171,0.372c0.116,0.094,0.248,0.132,0.402,0.132
				c0.116,0,0.226-0.022,0.336-0.061c0.11-0.033,0.22-0.08,0.331-0.127c0.11-0.052,0.22-0.097,0.336-0.13
				c0.105-0.041,0.215-0.066,0.325-0.066c0.204,0,0.364,0.055,0.48,0.149C105.386,170.755,105.446,170.884,105.435,171.064z"/>
			<path fill="#6D6E71" d="M110.143,176.709c-0.408,0-0.739-0.113-0.992-0.339c-0.336,0.366-0.728,0.546-1.185,0.546
				c-0.314,0-0.579-0.066-0.799-0.201c-0.209-0.138-0.391-0.3-0.54-0.51c-0.143-0.218-0.243-0.449-0.309-0.706
				c-0.066-0.262-0.094-0.516-0.094-0.772c0-0.642,0.138-1.301,0.425-1.985c0.287-0.689,0.728-1.422,1.318-2.205
				c-0.193-0.154-0.309-0.322-0.347-0.507c-0.038-0.185-0.022-0.356,0.05-0.524c0.072-0.157,0.176-0.295,0.331-0.408
				c0.149-0.105,0.325-0.157,0.529-0.157c0.099,0,0.259,0.072,0.463,0.226c0.209,0.141,0.447,0.345,0.706,0.606
				c0.264,0.262,0.529,0.568,0.805,0.907c0.276,0.347,0.524,0.711,0.75,1.111c0.226,0.389,0.408,0.797,0.552,1.213
				c0.143,0.422,0.22,0.832,0.22,1.246c0,0.273-0.039,0.557-0.121,0.846c-0.066,0.284-0.182,0.551-0.342,0.794
				c-0.154,0.24-0.353,0.441-0.584,0.593C110.739,176.631,110.463,176.709,110.143,176.709z M110.673,174.112
				c0-0.242-0.061-0.504-0.171-0.777c-0.121-0.281-0.264-0.552-0.436-0.813c-0.176-0.268-0.358-0.524-0.557-0.747
				c-0.21-0.229-0.391-0.424-0.568-0.579c-0.138,0.201-0.292,0.433-0.463,0.695c-0.171,0.27-0.336,0.54-0.491,0.833
				c-0.143,0.281-0.265,0.57-0.369,0.86c-0.105,0.284-0.165,0.541-0.165,0.78c0,0.438,0.193,0.653,0.579,0.653
				c0.127,0,0.237-0.033,0.325-0.099c0.083-0.066,0.16-0.141,0.231-0.223c0.061-0.083,0.127-0.152,0.193-0.218
				c0.061-0.072,0.149-0.102,0.248-0.102c0.099,0,0.176,0.03,0.243,0.102c0.055,0.066,0.116,0.127,0.187,0.207
				c0.061,0.072,0.143,0.141,0.22,0.207c0.094,0.066,0.198,0.097,0.331,0.097C110.452,174.986,110.673,174.697,110.673,174.112z"/>
		</g>
	</g>
</g>
</svg>
