<?xml version="1.0" encoding="utf-8"?>
<!-- Generator: Adobe Illustrator 17.0.0, SVG Export Plug-In . SVG Version: 6.00 Build 0)  -->
<!DOCTYPE svg PUBLIC "-//W3C//DTD SVG 1.1//EN" "http://www.w3.org/Graphics/SVG/1.1/DTD/svg11.dtd">
<svg version="1.1" xmlns="http://www.w3.org/2000/svg" xmlns:xlink="http://www.w3.org/1999/xlink" x="0px" y="0px" width="48px"
	 height="48px" viewBox="0 0 48 48" enable-background="new 0 0 48 48" xml:space="preserve">
<g id="Layer_1">
	<g>
		<path fill="none" stroke="#939598" stroke-width="2" stroke-linecap="round" stroke-linejoin="round" stroke-miterlimit="10" d="
			M37.79,40.039c2.076-2.076,2.523-5.162,1.344-7.675c-3.283-0.455-6.504-1.452-9.521-2.991c-0.503,0.29-0.978,0.65-1.408,1.08
			c-0.811,0.811-1.373,1.777-1.687,2.803c-2.233-1.414-3.757-2.328-6.542-5.112c-2.784-2.784-3.948-4.713-5.362-6.946
			c1.025-0.314,1.991-0.875,2.803-1.686c0.431-0.431,0.789-0.905,1.08-1.408c-1.539-3.017-2.537-6.238-2.991-9.521
			C12.993,7.403,9.906,7.851,7.83,9.926c-1.913,1.913-2.443,4.686-1.59,7.075l-0.001,0c0,0,1.719,6.797,9.9,14.978
			c8.181,8.181,14.574,9.65,14.574,9.65v-0.001C33.104,42.482,35.877,41.953,37.79,40.039z"/>
		<path fill="none" stroke="#939598" stroke-width="2" stroke-linecap="round" stroke-linejoin="round" stroke-miterlimit="10" d="
			M24.291,14.57c3.94,0,7.134,3.194,7.134,7.134"/>
		<path fill="none" stroke="#939598" stroke-width="2" stroke-linecap="round" stroke-linejoin="round" stroke-miterlimit="10" d="
			M25.362,10.727c5.471,0,9.907,4.436,9.907,9.907"/>
		<path fill="none" stroke="#939598" stroke-width="2" stroke-linecap="round" stroke-linejoin="round" stroke-miterlimit="10" d="
			M26.517,6.521c7.156,0,12.958,5.801,12.958,12.958"/>
	</g>
</g>
<g id="Layer_2" display="none">
	<g display="inline">
		<line fill="none" stroke="#000000" stroke-width="0.0979" stroke-miterlimit="10" x1="4" y1="-88.394" x2="4" y2="543.874"/>
		<line fill="none" stroke="#000000" stroke-width="0.0979" stroke-miterlimit="10" x1="44" y1="-88.394" x2="44" y2="543.874"/>
		<line fill="none" stroke="#000000" stroke-width="0.103" stroke-miterlimit="10" x1="475.134" y1="4" x2="-223.975" y2="4"/>
		<line fill="none" stroke="#000000" stroke-width="0.103" stroke-miterlimit="10" x1="475.134" y1="44" x2="-223.975" y2="44"/>
		
			<ellipse fill="none" stroke="#000000" stroke-width="0.1044" stroke-miterlimit="10" cx="23.951" cy="24" rx="19.962" ry="19.976"/>
	</g>
</g>
</svg>
